<?xml version="1.0" standalone="no"?>
<!DOCTYPE svg PUBLIC "-//W3C//DTD SVG 20010904//EN"
 "http://www.w3.org/TR/2001/REC-SVG-20010904/DTD/svg10.dtd">
<svg version="1.0" xmlns="http://www.w3.org/2000/svg"
 width="1024.000000pt" height="1024.000000pt" viewBox="0 0 1024.000000 1024.000000"
 preserveAspectRatio="xMidYMid meet">
<metadata>
Created by potrace 1.16, written by Peter Selinger 2001-2019
</metadata>
<g transform="translate(0.000000,1024.000000) scale(0.100000,-0.100000)"
fill="#000000" stroke="none">
<path d="M4320 8790 c-563 -38 -1098 -179 -1566 -414 -634 -318 -1148 -765
-1518 -1321 -532 -798 -742 -1703 -620 -2675 118 -944 550 -1786 1272 -2481
555 -534 1284 -929 2057 -1114 749 -179 1495 -178 2240 5 415 101 715 213
1080 404 560 292 1018 663 1446 1171 113 135 349 455 335 455 -2 0 -40 -42
-82 -93 -257 -305 -471 -510 -761 -730 -583 -441 -1349 -762 -2134 -896 -329
-56 -743 -81 -1063 -63 -217 12 -466 39 -616 67 -172 32 -490 116 -650 171
-621 213 -1122 523 -1565 968 -304 304 -530 611 -716 970 -218 422 -342 826
-401 1311 -19 160 -16 653 5 805 104 738 440 1439 953 1992 296 319 616 558
1064 795 408 217 951 381 1445 438 199 23 587 31 770 16 331 -27 794 -115
1044 -198 52 -18 -44 32 -165 85 -389 171 -794 276 -1234 321 -145 15 -469 20
-620 11z"/>
<path d="M4185 7513 c-298 -6 -750 -48 -945 -87 -227 -46 -300 -108 -442 -376
-89 -169 -197 -403 -283 -614 l-49 -118 -27 83 c-16 46 -37 94 -47 108 -30 41
-83 54 -192 47 -243 -14 -377 -71 -398 -171 -19 -89 19 -170 94 -201 45 -19
187 -34 324 -34 63 0 121 -4 129 -9 23 -15 -128 -160 -202 -196 -70 -33 -93
-71 -113 -184 -48 -269 -18 -744 82 -1291 20 -107 51 -283 69 -390 35 -203 42
-230 55 -230 4 0 8 150 7 333 -1 347 9 496 44 671 44 221 116 265 219 135 21
-26 72 -115 114 -197 81 -159 135 -231 195 -261 160 -80 806 -205 1351 -260
630 -64 890 -80 1430 -88 454 -6 775 7 1195 48 252 24 618 70 628 79 4 3 -24
30 -63 59 -89 68 -136 120 -161 179 -36 82 -51 112 -59 112 -4 0 -31 -36 -60
-80 -63 -96 -142 -171 -196 -188 -113 -34 -529 -52 -1181 -52 -738 0 -936 15
-1065 81 -124 63 -318 325 -469 633 -91 184 -80 217 87 261 230 61 945 100
1717 94 246 -2 447 -3 447 -3 0 1 -32 28 -70 59 -48 39 -127 85 -248 145 -97
48 -221 119 -274 156 -82 58 -101 76 -118 116 -26 61 -26 118 0 146 48 52 141
37 388 -63 315 -126 442 -158 702 -175 219 -14 290 -28 530 -105 232 -74 287
-98 431 -187 57 -36 120 -74 140 -86 53 -32 65 -48 48 -68 -12 -15 -11 -16 11
-8 48 17 172 10 215 -13 79 -42 175 -172 175 -239 0 -31 9 -35 31 -13 10 10
26 19 34 19 20 0 19 5 -11 96 -51 152 -144 308 -229 383 -114 100 -607 331
-892 417 -167 50 -263 92 -293 128 -14 16 -31 37 -38 45 -11 13 -12 13 -6 1 4
-8 3 -12 -1 -7 -5 4 -9 15 -10 25 -1 17 11 18 164 17 147 0 170 2 198 19 74
45 84 186 17 265 -32 39 -89 59 -199 71 -154 17 -220 14 -250 -13 -43 -37 -43
-130 2 -254 13 -38 -55 40 -137 155 -264 370 -746 871 -907 942 -179 79 -1008
147 -1638 133z m930 -177 c176 -15 472 -50 555 -66 157 -30 249 -103 516 -410
176 -204 521 -647 510 -657 -2 -2 -311 6 -687 17 -793 25 -2485 32 -2704 11
-66 -6 -207 -12 -313 -14 -211 -2 -212 -2 -212 58 0 70 153 473 270 710 112
229 152 269 298 300 80 16 474 52 717 65 231 12 842 4 1050 -14z m-1941 -1970
c90 -44 156 -109 198 -193 l31 -63 48 44 c59 53 119 76 219 83 162 11 314 -85
377 -237 12 -32 18 -71 18 -130 0 -72 -4 -94 -28 -145 -36 -78 -95 -137 -171
-172 -54 -25 -72 -28 -161 -28 -93 0 -105 2 -167 33 -71 35 -119 82 -165 162
-14 25 -27 47 -29 49 -2 2 -23 -14 -48 -37 -53 -49 -84 -65 -154 -82 -159 -37
-312 51 -401 231 -35 70 -43 98 -48 159 -9 128 44 245 140 315 57 41 112 55
195 51 59 -2 86 -10 146 -40z"/>
<path d="M1721 5226 c-28 -69 -32 -238 -21 -766 6 -289 15 -559 20 -601 12
-104 44 -182 94 -234 51 -53 72 -57 291 -53 l160 3 -2 78 c-3 138 -71 252
-286 476 -71 74 -135 144 -142 155 -14 22 -39 300 -50 546 -7 174 -24 332 -40
384 l-12 41 -12 -29z"/>
<path d="M4410 5163 c0 -5 16 -56 36 -115 l36 -108 741 -2 c1187 -2 1821 3
1829 16 18 26 50 125 55 168 l6 48 -1352 0 c-743 0 -1351 -3 -1351 -7z"/>
<path d="M2331 4794 c-12 -36 -26 -116 -32 -177 -27 -257 -1 -1414 36 -1652
28 -177 77 -269 169 -314 l48 -24 390 2 c370 2 393 3 446 23 132 49 232 217
232 388 l0 49 -42 5 c-24 2 -115 12 -203 20 -162 16 -310 43 -397 72 -61 20
-182 100 -229 150 -84 92 -130 167 -182 300 -62 157 -88 326 -107 679 -12 216
-42 457 -65 511 -22 53 -41 43 -64 -32z"/>
<path d="M4587 4790 l-29 -5 33 -45 c53 -72 127 -139 193 -172 l61 -31 230 -8
c333 -12 1324 -11 1500 1 177 12 215 26 316 119 63 57 110 124 97 137 -8 7
-2360 12 -2401 4z"/>
<path d="M2690 3902 c0 -13 100 -183 165 -282 231 -348 379 -413 1075 -469
635 -52 775 -59 1350 -70 581 -11 1266 -3 1525 19 261 22 633 75 838 121 379
83 550 200 665 450 64 138 72 162 58 181 -11 15 -37 13 -326 -17 -927 -99
-1462 -141 -1975 -156 -799 -22 -1750 22 -2720 126 -409 44 -538 63 -615 90
-22 8 -40 11 -40 7z"/>
<path d="M8505 3403 c-41 -80 -149 -248 -197 -307 l-40 -51 8 40 c4 22 20 86
35 143 15 57 25 102 21 100 -4 -2 -36 -17 -72 -35 -100 -49 -269 -86 -510
-113 -47 -5 -182 -20 -300 -34 -118 -14 -282 -30 -365 -36 -220 -16 -203 1
-139 -137 93 -197 158 -273 272 -316 54 -21 73 -22 385 -22 180 0 327 -3 327
-6 0 -18 -367 -335 -502 -435 -427 -315 -935 -552 -1463 -683 -522 -129 -1116
-168 -1618 -105 -71 9 -130 14 -133 12 -4 -4 66 -21 206 -49 80 -16 241 -38
400 -54 740 -75 1520 34 2215 310 152 60 447 202 590 284 502 288 956 692
1238 1102 l67 96 -163 144 c-89 79 -178 158 -197 176 l-36 31 -29 -55z"/>
</g>
</svg>
